<?xml version="1.0" encoding="UTF-8"?>
<svg width="144px" height="58px" viewBox="0 0 144 58" version="1.1" xmlns="http://www.w3.org/2000/svg" xmlns:xlink="http://www.w3.org/1999/xlink">
    <!-- Generator: Sketch 43.2 (39069) - http://www.bohemiancoding.com/sketch -->
    <title>Logo</title>
    <desc>Created with Sketch.</desc>
    <defs></defs>
    <g id="Page-1" stroke="none" stroke-width="1" fill="none" fill-rule="evenodd">
        <g id="Logo">
            <path d="M27.0255462,54.6510205 L25.7986231,57.3599179 L26.1101872,57.3599179 L26.4291872,56.6497897 L27.8933154,56.6497897 L28.2085974,57.3599179 L28.5350333,57.3599179 L27.3095974,54.6510205 L27.0255462,54.6510205 Z M27.1623667,55.0049692 L27.774341,56.3746615 L26.5474179,56.3746615 L27.1623667,55.0049692 Z M34.4641205,54.6699821 L35.4716846,54.6699821 C36.0769667,54.6699821 36.4777615,54.9941872 36.4777615,55.5228795 L36.4777615,55.531059 C36.4777615,56.1103154 35.9951718,56.4107256 35.4211205,56.4107256 L34.7689923,56.4107256 L34.7689923,57.3602897 L34.4641205,57.3602897 L34.4641205,54.6699821 Z M35.4337615,56.1333667 C35.8784282,56.1333667 36.1699154,55.8946744 36.1699154,55.5429564 L36.1699154,55.5355205 C36.1699154,55.1510846 35.8821462,54.9503154 35.4464026,54.9503154 L34.7689923,54.9503154 L34.7689923,56.1333667 L35.4337615,56.1333667 Z M43.1568333,54.6507974 L43.4393974,54.6507974 L44.6655769,57.3604385 L44.3369103,57.3604385 L44.0223718,56.6495667 L42.5589872,56.6495667 L42.2422179,57.3604385 L41.9291667,57.3604385 L43.1568333,54.6507974 Z M43.904141,56.3751821 L43.2943974,55.0047462 L42.6779615,56.3751821 L43.904141,56.3751821 Z M50.5968205,54.6699821 L51.752359,54.6699821 C52.0847436,54.6699821 52.3479744,54.7703667 52.519,54.9384179 C52.6491282,55.0700333 52.722,55.2596487 52.722,55.4700846 L52.722,55.4767769 C52.722,55.9229308 52.4178718,56.1839308 51.9940256,56.2612641 L52.8208974,57.3602897 L52.4491026,57.3602897 L51.6668462,56.3148026 L50.9002051,56.3148026 L50.9002051,57.3602897 L50.5968205,57.3602897 L50.5968205,54.6699821 Z M51.7255897,56.0426487 C52.129359,56.0426487 52.4178718,55.8344436 52.4178718,55.4901615 L52.4178718,55.4812385 C52.4178718,55.1510846 52.1628205,54.9503154 51.7278205,54.9503154 L50.9002051,54.9503154 L50.9002051,56.0426487 L51.7255897,56.0426487 Z M59.4574359,54.9500923 L58.5539744,54.9500923 L58.5539744,54.669759 L60.6687436,54.669759 L60.6687436,54.9500923 L59.7675128,54.9500923 L59.7675128,57.3600667 L59.4574359,57.3600667 L59.4574359,54.9500923 Z M67.2823795,54.6507974 L67.5649436,54.6507974 L68.7926103,57.3604385 L68.4684051,57.3604385 L68.1508923,56.6495667 L66.6860205,56.6495667 L66.3692513,57.3604385 L66.0591744,57.3604385 L67.2823795,54.6507974 Z M68.0334051,56.3751821 L67.4229179,55.0047462 L66.8072256,56.3751821 L68.0334051,56.3751821 Z M74.7260846,54.6698333 L75.0317,54.6698333 L76.0132385,56.1376795 L76.9895718,54.6698333 L77.2996487,54.6698333 L77.2996487,57.360141 L76.9962641,57.360141 L76.9962641,55.1821667 L76.0132385,56.6217564 L75.9991103,56.6217564 L75.0212897,55.1843974 L75.0212897,57.360141 L74.7260846,57.360141 L74.7260846,54.6698333 Z M83.4614051,54.6698333 L85.4044051,54.6698333 L85.4044051,54.9486795 L83.7633026,54.9486795 L83.7633026,55.8662692 L85.2296615,55.8662692 L85.2296615,56.1443718 L83.7633026,56.1443718 L83.7633026,57.0842692 L85.4229949,57.0842692 L85.4229949,57.360141 L83.4614051,57.360141 L83.4614051,54.6698333 Z M91.4335795,54.6698333 L91.7220923,54.6698333 L93.413759,56.8269872 L93.413759,54.6698333 L93.7074769,54.6698333 L93.7074769,57.360141 L93.4687846,57.360141 L91.7295282,55.1539103 L91.7295282,57.360141 L91.4335795,57.360141 L91.4335795,54.6698333 Z M100.579213,54.9500923 L99.6779821,54.9500923 L99.6779821,54.669759 L101.794238,54.669759 L101.794238,54.9500923 L100.88929,54.9500923 L100.88929,57.3600667 L100.579213,57.3600667 L100.579213,54.9500923 Z M107.454295,56.0212333 L107.454295,56.0152846 C107.454295,55.2739256 108.011987,54.6247718 108.831423,54.6247718 C109.646397,54.6247718 110.198141,55.2657462 110.198141,56.0078487 L110.198141,56.0152846 C110.198141,56.7566436 109.641936,57.4050538 108.823244,57.4050538 C108.004551,57.4050538 107.454295,56.7648231 107.454295,56.0212333 Z M109.882115,56.0212333 L109.882115,56.0152846 C109.882115,55.4047974 109.435962,54.9043615 108.823244,54.9043615 C108.206808,54.9043615 107.770321,55.3966179 107.770321,56.0078487 L107.770321,56.0152846 C107.770321,56.6265154 108.215731,57.1239769 108.831423,57.1239769 C109.445628,57.1239769 109.882115,56.6339513 109.882115,56.0212333 Z M116.043946,56.9684923 L116.233562,56.7439282 C116.514638,56.9974923 116.783818,57.1239026 117.153382,57.1239026 C117.512536,57.1239026 117.752715,56.9328 117.752715,56.6695692 L117.752715,56.6613897 C117.752715,56.4108 117.618869,56.2687744 117.053741,56.1498 C116.436562,56.0152103 116.151767,55.8151846 116.151767,55.3734923 L116.151767,55.3660564 C116.151767,54.9451846 116.522818,54.6306462 117.034408,54.6306462 C117.426279,54.6306462 117.7081,54.7444154 117.978023,54.9622872 L117.803279,55.1972615 C117.554177,54.9942615 117.303587,54.9042872 117.026972,54.9042872 C116.678228,54.9042872 116.456638,55.0968769 116.456638,55.3400308 L116.456638,55.3482103 C116.456638,55.6002872 116.592715,55.7415692 117.184613,55.8687231 C117.783946,56.0003385 118.061305,56.2189538 118.061305,56.630159 L118.061305,56.6368513 C118.061305,57.0993641 117.676869,57.3968 117.142228,57.3968 C116.716895,57.3968 116.366664,57.2562615 116.043946,56.9684923 Z" id="Combined-Shape" fill="#87C98A"></path>
            <path d="M83.109241,0 C79.2633949,0 75.6220359,1.42546154 72.8090359,3.96779487 L72.8053179,3.96779487 C72.7726,3.99679487 72.7391385,4.02951282 72.7049333,4.06 C72.6157026,4.14253846 72.5287026,4.2265641 72.4431897,4.31207692 C72.2654718,4.48533333 72.0959333,4.66007692 71.9345744,4.83333333 C71.8289846,4.94710256 71.7278564,5.06087179 71.6297026,5.17241026 C71.4542154,5.36053846 71.2824462,5.55089744 71.1181128,5.75389744 L70.5886769,6.40974359 L70.6124718,6.44394872 L70.610241,6.44692308 L70.5871897,6.44692308 C70.3879077,6.71907692 70.2139077,6.99494872 70.0443692,7.26858974 C70.0064462,7.32658974 69.9871128,7.35930769 69.9871128,7.35930769 L69.9811641,7.35558974 C69.9313436,7.43589744 69.8740872,7.51992308 69.827241,7.60097436 C68.4218564,9.9834359 67.6760359,12.6923333 67.6760359,15.4324615 L67.6760359,26.0881026 C64.0116256,23.6253333 61.797959,19.5318718 61.797959,15.0413333 L61.797959,2.13410256 C62.8256,2.21366667 63.8294462,2.41741026 64.7961128,2.72674359 C66.3174974,3.21379487 67.7362667,3.97894872 68.9966513,4.97982051 C69.3758821,4.48533333 69.8287282,3.94994872 70.3700615,3.40192308 C69.0680359,2.35569231 67.6210103,1.52435897 66.0683949,0.951794872 C64.3863949,0.330897436 62.5936,0 60.7532154,0 L59.7032667,0 L59.7032667,15.0413333 C59.7032667,20.9179231 62.9810103,26.2070769 68.2560359,28.842359 L69.7714718,29.5993333 L69.7714718,15.4324615 C69.7714718,13.211359 70.3440359,11.0155385 71.4185231,9.048 C71.4921385,8.92233333 71.5531128,8.79071795 71.6297026,8.66579487 C71.7219077,8.51112821 71.8274974,8.35497436 71.9323436,8.1995641 C71.9330872,8.19510256 71.9345744,8.19435897 71.9345744,8.19435897 C72.1293949,7.89469231 72.3413179,7.59874359 72.5673692,7.30205128 C72.8187026,6.98676923 73.0596256,6.70048718 73.2834462,6.45733333 C73.3801128,6.351 73.4700872,6.25507692 73.5533692,6.16584615 C73.6693692,6.04612821 73.7868564,5.92120513 73.9080615,5.80594872 C73.9682923,5.74497436 74.0210872,5.69664103 74.0597538,5.65723077 L74.061241,5.65946154 C76.2592923,3.61161538 79.0648564,2.36907692 82.0644974,2.13410256 L82.0644974,15.0413333 C82.0644974,19.5318718 79.8515744,23.6253333 76.1864205,26.0881026 L76.1864205,15.4324615 C76.1864205,15.1714615 76.1470103,14.9126923 76.1343692,14.6531795 C76.0206,12.4982564 75.4539846,10.3961282 74.4687282,8.46428205 C73.8842667,9.18630769 73.4329077,9.8525641 73.0930872,10.4407436 C73.6091385,11.7085641 73.9229333,13.0433077 74.0314974,14.4011026 C74.0575231,14.7453846 74.090241,15.0881795 74.090241,15.4324615 L74.090241,29.5993333 L75.6093949,28.842359 C80.8821897,26.2070769 84.1577026,20.9179231 84.1577026,15.0413333 L84.1577026,0 L83.109241,0 Z" id="Fill-25" fill="#87C98A"></path>
            <path d="M0,43.8932103 L0,43.8619795 C0,40.763441 2.27389744,38.0203385 5.66169231,38.0203385 C7.56528205,38.0203385 8.74387179,38.5698513 9.87264103,39.5223897 L9.04874359,40.4898 C8.17874359,39.7313385 7.21058974,39.1989282 5.61335897,39.1989282 C3.11341026,39.1989282 1.32135897,41.3122103 1.32135897,43.8277744 L1.32135897,43.8619795 C1.32135897,46.5552615 3.04797436,48.5555179 5.79107692,48.5555179 C7.08046154,48.5555179 8.27466667,48.0543385 9.04874359,47.4252615 L9.04874359,44.620441 L5.61335897,44.620441 L5.61335897,43.4730821 L10.2756667,43.4730821 L10.2756667,47.9732872 C9.22571795,48.9094667 7.64558974,49.7006462 5.74274359,49.7006462 C2.19433333,49.7006462 0,47.1189026 0,43.8932103 Z M12.4917872,43.8932103 L12.4917872,43.8619795 C12.4917872,40.7478256 14.8311205,38.0203385 18.2679923,38.0203385 C21.7026333,38.0203385 24.0114795,40.7151077 24.0114795,43.8277744 L24.0114795,43.8619795 C24.0114795,46.9746462 21.670659,49.7006462 18.2360179,49.7006462 C14.7991462,49.7006462 12.4917872,47.0073641 12.4917872,43.8932103 Z M22.6871462,43.8932103 L22.6871462,43.8619795 C22.6871462,41.2958513 20.8162744,39.1989282 18.2360179,39.1989282 C15.6542744,39.1989282 13.8146333,41.2631333 13.8146333,43.8277744 L13.8146333,43.8619795 C13.8146333,46.4258769 15.6877359,48.5228 18.2679923,48.5228 C20.8482487,48.5228 22.6871462,46.4578513 22.6871462,43.8932103 Z M26.5499462,38.2150103 L27.824459,38.2150103 L27.824459,48.3285744 L34.1799205,48.3285744 L34.1799205,49.5056769 L26.5499462,49.5056769 L26.5499462,38.2150103 Z M36.3799795,38.2150103 L44.4932872,38.2150103 L44.4932872,39.3921128 L37.6522615,39.3921128 L37.6522615,43.4253436 L43.7690308,43.4253436 L43.7690308,44.5868308 L37.6522615,44.5868308 L37.6522615,49.5056769 L36.3799795,49.5056769 L36.3799795,38.2150103 Z M49.7892821,39.3921128 L45.9977179,39.3921128 L45.9977179,38.2150103 L54.8702308,38.2150103 L54.8702308,39.3921128 L51.0808974,39.3921128 L51.0808974,49.5056769 L49.7892821,49.5056769 L49.7892821,39.3921128 Z M57.1031564,38.2150103 L65.2647974,38.2150103 L65.2647974,39.3764974 L58.3769256,39.3764974 L58.3769256,43.2320103 L64.5397974,43.2320103 L64.5397974,44.3927538 L58.3769256,44.3927538 L58.3769256,48.3456769 L65.3458487,48.3456769 L65.3458487,49.5056769 L57.1031564,49.5056769 L57.1031564,38.2150103 Z M67.7556,38.2147128 L72.6104974,38.2147128 C73.9995231,38.2147128 75.1119333,38.6340974 75.8205744,39.3442256 C76.3708308,39.8915077 76.6935487,40.6812 76.6935487,41.5712769 L76.6935487,41.6032513 C76.6935487,43.4733795 75.4026769,44.5709179 73.6284718,44.8936359 L77.0965744,49.5053795 L75.5313179,49.5053795 L72.2572923,45.1189436 L69.0301128,45.1189436 L69.0301128,49.5053795 L67.7556,49.5053795 L67.7556,38.2147128 Z M72.4982154,43.9723282 C74.1906256,43.9723282 75.4026769,43.1023282 75.4026769,41.6500974 L75.4026769,41.6196103 C75.4026769,40.2313282 74.3378564,39.3918154 72.5153179,39.3918154 L69.0301128,39.3918154 L69.0301128,43.9723282 L72.4982154,43.9723282 Z M79.2630231,38.2147128 L84.1171769,38.2147128 C85.5069462,38.2147128 86.6208436,38.6340974 87.3294846,39.3442256 C87.8775103,39.8915077 88.2009718,40.6812 88.2009718,41.5712769 L88.2009718,41.6032513 C88.2009718,43.4733795 86.9101,44.5709179 85.1358949,44.8936359 L88.6025103,49.5053795 L87.038741,49.5053795 L83.7632282,45.1189436 L80.5367923,45.1189436 L80.5367923,49.5053795 L79.2630231,49.5053795 L79.2630231,38.2147128 Z M84.0071256,43.9723282 C85.6987923,43.9723282 86.9101,43.1023282 86.9101,41.6500974 L86.9101,41.6196103 C86.9101,40.2313282 85.8445359,39.3918154 84.0219974,39.3918154 L80.5367923,39.3918154 L80.5367923,43.9723282 L84.0071256,43.9723282 Z M94.9511308,38.1338103 L96.1431051,38.1338103 L101.290977,49.5055282 L99.9175667,49.5055282 L98.5962077,46.5229897 L92.4496949,46.5229897 L91.1104897,49.5055282 L89.8040026,49.5055282 L94.9511308,38.1338103 Z M98.0965154,45.3771179 L95.5318744,39.6180154 L92.9508744,45.3771179 L98.0965154,45.3771179 Z M102.392456,47.8616744 L103.183636,46.9254949 C104.361482,47.9903154 105.490995,48.5227256 107.054764,48.5227256 C108.570944,48.5227256 109.570328,47.7166744 109.570328,46.6042641 L109.570328,46.5708026 C109.570328,45.522341 109.008174,44.9252385 106.635379,44.4262897 C104.038021,43.8619051 102.844559,43.0216487 102.844559,41.1671359 L102.844559,41.1344179 C102.844559,39.3602128 104.409072,38.0529821 106.555072,38.0529821 C108.200636,38.0529821 109.379226,38.5221872 110.525097,39.4412641 L109.782251,40.4257769 C108.732303,39.5691615 107.685328,39.1988538 106.523097,39.1988538 C105.054508,39.1988538 104.119072,40.0049051 104.119072,41.0213923 L104.119072,41.0526231 C104.119072,42.1181872 104.700559,42.7145462 107.184149,43.2477 C109.700456,43.7964692 110.864174,44.7162897 110.864174,46.4429051 L110.864174,46.4733923 C110.864174,48.4097 109.249097,49.6685974 107.006431,49.6685974 C105.215867,49.6685974 103.749508,49.0722385 102.392456,47.8616744 Z M112.398944,47.8616744 L113.188636,46.9254949 C114.368713,47.9903154 115.496738,48.5227256 117.061995,48.5227256 C118.577431,48.5227256 119.576072,47.7166744 119.576072,46.6042641 L119.576072,46.5708026 C119.576072,45.522341 119.013918,44.9252385 116.64261,44.4262897 C114.044508,43.8619051 112.85179,43.0216487 112.85179,41.1671359 L112.85179,41.1344179 C112.85179,39.3602128 114.415559,38.0529821 116.562303,38.0529821 C118.206379,38.0529821 119.385713,38.5221872 120.529354,39.4412641 L119.787995,40.4257769 C118.73879,39.5691615 117.691072,39.1988538 116.528841,39.1988538 C115.060995,39.1988538 114.124815,40.0049051 114.124815,41.0213923 L114.124815,41.0526231 C114.124815,42.1181872 114.706303,42.7145462 117.189892,43.2477 C119.707687,43.7964692 120.869918,44.7162897 120.869918,46.4429051 L120.869918,46.4733923 C120.869918,48.4097 119.256328,49.6685974 117.012174,49.6685974 C115.223097,49.6685974 113.755251,49.0722385 112.398944,47.8616744 Z M123.31209,38.2150103 L131.472244,38.2150103 L131.472244,39.3764974 L124.584372,39.3764974 L124.584372,43.2320103 L130.7465,43.2320103 L130.7465,44.3927538 L124.584372,44.3927538 L124.584372,48.3456769 L131.553295,48.3456769 L131.553295,49.5056769 L123.31209,49.5056769 L123.31209,38.2150103 Z M133.963046,38.2150103 L135.157995,38.2150103 L142.271174,47.2630103 L142.271174,38.2150103 L143.512969,38.2150103 L143.512969,49.5056769 L142.496482,49.5056769 L135.205585,40.247241 L135.205585,49.5056769 L133.963046,49.5056769 L133.963046,38.2150103 Z" id="Combined-Shape" fill="#555555"></path>
        </g>
    </g>
</svg>