<?xml version="1.0" encoding="UTF-8"?>
<svg width="240px" height="64px" viewBox="0 0 240 64" version="1.1" xmlns="http://www.w3.org/2000/svg" xmlns:xlink="http://www.w3.org/1999/xlink">
    <!-- Generator: Sketch 43.2 (39069) - http://www.bohemiancoding.com/sketch -->
    <title>schroeder-logo</title>
    <desc>Created with Sketch.</desc>
    <defs></defs>
    <g id="Page-1" stroke="none" stroke-width="1" fill="none" fill-rule="evenodd">
        <g id="schroeder-logo">
            <polygon id="Fill-1" fill="#009874" points="51.5871628 25.4208992 37.5871628 32.8429147 29.5214264 37.1188837 28.2860775 36.4646202 0.21227907 21.5833798 0.0981705426 21.5232248 0.0981705426 37.4047752 0.21227907 37.4649302 11.0116589 43.1902016 29.5214264 53.0010543 54.2191008 39.9083411 54.2191008 45.0996589 29.5214264 58.1923721 15.291969 50.6500465 5.36700775 45.388031 0.000186046512 42.5477209 0.000186046512 47.8779535 1.35274419 48.6066357 29.5214264 63.5374884 58.676155 48.0832248 58.944062 47.9412093 58.944062 32.0596589 58.676155 32.2004341 29.5214264 47.6553178 16.8268527 40.9266357 4.82065116 34.5632248 4.82065116 29.371907 22.4727442 38.7288062 29.5214264 42.4652403 57.6863876 27.5343876 58.944062 26.8695814 58.944062 21.5232248"></polygon>
            <polygon id="Fill-2" fill="#50C369" points="29.5216744 0.620527132 9.97624806 11.0310698 0.717333333 15.9631628 0.132527132 16.2757209 0.717333333 16.5870388 29.5216744 31.9309147 39.3213643 26.7098295 58.1734574 16.6670388 58.9089612 16.2757209 58.1734574 15.8837829 46.6757829 9.76037209 41.7343876 7.12595349 41.7257054 7.12285271 39.2525271 8.43448062 36.7781085 9.74610853 36.779969 9.74734884 25.6475659 15.6543256 24.4308217 16.299907 22.1257054 17.5234729 27.0590388 20.1585116 41.7269457 12.3830078 49.036093 16.2757209 34.3929922 24.0766512 29.5216744 26.672 22.164155 22.7532403 17.2264806 20.1225426 10.0047752 16.2757209 14.9058605 13.6654884 20.1145426 10.8902946 20.1114419 10.8816124 24.1846202 8.7216124 29.5216744 5.87882171 29.5334574 5.88688372 32.0084961 4.57525581 34.4822946 3.26300775"></polygon>
            <path d="M73.7508837,25.8899225 C73.7508837,25.8899225 75.4284031,27.4217054 77.2925891,27.4217054 C78.0380155,27.4217054 78.8460775,27.1327132 78.8460775,26.2415504 C78.8460775,24.4815504 72.1769302,24.5435659 72.1769302,19.9872868 C72.1769302,17.2536434 74.475845,15.4514729 77.4172403,15.4514729 C80.6066977,15.4514729 82.180031,17.1289922 82.180031,17.1289922 L80.6482481,20.0908527 C80.6482481,20.0908527 79.1567752,18.7860465 77.3756899,18.7860465 C76.6290233,18.7860465 75.8023566,19.1172093 75.8023566,19.9457364 C75.8023566,21.8093023 82.4702636,21.4787597 82.4702636,26.1590698 C82.4702636,28.6229457 80.5856124,30.7562791 77.2504186,30.7562791 C73.771969,30.7562791 71.8451473,28.6434109 71.8451473,28.6434109 L73.7508837,25.8899225 Z M91.5004031,15.4514109 C95.1655194,15.4514109 97.0501705,17.5431938 97.0501705,17.5431938 L95.3726512,20.2774574 C95.3726512,20.2774574 93.7155969,18.7655194 91.6653643,18.7655194 C88.828155,18.7655194 87.4817984,20.8566822 87.4817984,22.9906357 C87.4817984,25.1853643 88.9317209,27.4427287 91.6653643,27.4427287 C93.9028837,27.4427287 95.6002481,25.620093 95.6002481,25.620093 L97.463814,28.2712558 C97.463814,28.2712558 95.3726512,30.7562171 91.5004031,30.7562171 C86.8604031,30.7562171 83.7335814,27.463814 83.7335814,23.0731163 C83.7335814,18.7655194 87.0470698,15.4514109 91.5004031,15.4514109 Z M99.4528372,15.700031 L103.076403,15.700031 L103.076403,21.6231318 L108.46245,21.6231318 L108.46245,15.700031 L112.086016,15.700031 L112.086016,30.5074729 L108.46245,30.5074729 L108.46245,24.7090233 L103.076403,24.7090233 L103.076403,30.5074729 L99.4528372,30.5074729 L99.4528372,15.700031 Z M115.358698,15.7002171 L120.515907,15.7002171 C122.027845,15.7002171 122.752806,15.8037829 123.394667,16.0524651 C125.071566,16.6943256 126.12831,18.2056434 126.12831,20.360062 C126.12831,21.9333953 125.382264,23.6530853 123.911876,24.3978915 L123.911876,24.4394419 C123.911876,24.4394419 124.119008,24.7092093 124.471256,25.3306047 L127.350016,30.5076589 L123.311566,30.5076589 L120.682109,25.5172713 L118.982884,25.5172713 L118.982884,30.5076589 L115.358698,30.5076589 L115.358698,15.7002171 Z M120.557457,22.4102946 C121.717147,22.4102946 122.441488,21.767814 122.441488,20.5882791 C122.441488,19.4695194 122.027845,18.8059535 120.205209,18.8059535 L118.982884,18.8059535 L118.982884,22.4102946 L120.557457,22.4102946 Z M135.965085,15.4517209 C140.438884,15.4517209 143.712062,18.7658295 143.712062,23.0107907 C143.712062,27.359938 140.438884,30.755907 135.965085,30.755907 C131.492527,30.755907 128.219969,27.359938 128.219969,23.0107907 C128.219969,18.7658295 131.492527,15.4517209 135.965085,15.4517209 Z M135.965085,27.4430388 C138.18214,27.4430388 139.962605,25.5379225 139.962605,23.0107907 C139.962605,20.587845 138.18214,18.7658295 135.965085,18.7658295 C133.749891,18.7658295 131.968186,20.587845 131.968186,23.0107907 C131.968186,25.5379225 133.749891,27.4430388 135.965085,27.4430388 Z M145.968992,15.700031 L155.247752,15.700031 L155.247752,18.8063876 L149.593798,18.8063876 L149.593798,21.4991008 L154.109147,21.4991008 L154.109147,24.6048372 L149.593798,24.6048372 L149.593798,27.4011163 L155.536744,27.4011163 L155.536744,30.5074729 L145.968992,30.5074729 L145.968992,15.700031 Z M157.940899,15.700155 L163.201674,15.700155 C167.86214,15.700155 170.842605,18.4133333 170.842605,23.0731783 C170.842605,27.7330233 167.86214,30.5075969 163.201674,30.5075969 L157.940899,30.5075969 L157.940899,15.700155 Z M163.056558,27.4012403 C165.562605,27.4012403 167.095008,25.9103876 167.095008,23.0731783 C167.095008,20.255814 165.499969,18.8065116 163.056558,18.8065116 L161.564465,18.8065116 L161.564465,27.4012403 L163.056558,27.4012403 Z M173.183752,15.700031 L182.461891,15.700031 L182.461891,18.8063876 L176.808558,18.8063876 L176.808558,21.4991008 L181.322667,21.4991008 L181.322667,24.6048372 L176.808558,24.6048372 L176.808558,27.4011163 L182.751504,27.4011163 L182.751504,30.5074729 L173.183752,30.5074729 L173.183752,15.700031 Z M185.154605,15.7002171 L190.311814,15.7002171 C191.823752,15.7002171 192.548093,15.8037829 193.189953,16.0524651 C194.867473,16.6943256 195.924217,18.2056434 195.924217,20.360062 C195.924217,21.9333953 195.178171,23.6530853 193.707783,24.3978915 L193.707783,24.4394419 C193.707783,24.4394419 193.914915,24.7092093 194.267783,25.3306047 L197.146543,30.5076589 L193.107473,30.5076589 L190.477395,25.5172713 L188.778171,25.5172713 L188.778171,30.5076589 L185.154605,30.5076589 L185.154605,15.7002171 Z M190.353364,22.4102946 C191.511814,22.4102946 192.237395,21.767814 192.237395,20.5882791 C192.237395,19.4695194 191.823752,18.8059535 190.001116,18.8059535 L188.778171,18.8059535 L188.778171,22.4102946 L190.353364,22.4102946 Z M79.7150388,33.4008062 C83.5054264,33.4008062 85.4105426,35.3691783 85.4105426,35.3691783 L83.6710078,38.0817364 C83.6710078,38.0817364 82.1584496,36.7142946 80.067907,36.7142946 C76.9615504,36.7142946 75.6976744,38.7037519 75.6976744,40.8978605 C75.6976744,43.7146047 77.6449612,45.392124 79.9432558,45.392124 C81.6834109,45.392124 82.9460465,44.3149147 82.9460465,44.3149147 L82.9460465,43.1756899 L80.8542636,43.1756899 L80.8542636,40.0897984 L86.155969,40.0897984 L86.155969,48.4563101 L83.1327132,48.4563101 L83.1327132,48.0420465 C83.1327132,47.7325891 83.1537984,47.4212713 83.1537984,47.4212713 L83.1122481,47.4212713 C83.1122481,47.4212713 81.6834109,48.7062326 79.2182946,48.7062326 C75.427907,48.7062326 71.9488372,45.8684031 71.9488372,41.0231318 C71.9488372,36.7142946 75.2009302,33.4008062 79.7150388,33.4008062 Z M88.6832868,33.6502326 L93.839876,33.6502326 C95.3524341,33.6502326 96.0773953,33.7531783 96.7192558,34.0018605 C98.396155,34.6437209 99.4528992,36.1556589 99.4528992,38.3088372 C99.4528992,39.884031 98.7068527,41.6024806 97.2370853,42.347907 L97.2370853,42.3894574 C97.2370853,42.3894574 97.4435969,42.6579845 97.795845,43.28 L100.675225,48.4564341 L96.636155,48.4564341 L94.0066977,43.4666667 L92.3074729,43.4666667 L92.3074729,48.4564341 L88.6832868,48.4564341 L88.6832868,33.6502326 Z M93.8820465,40.3590698 C95.0417364,40.3590698 95.7666977,39.7178295 95.7666977,38.5370543 C95.7666977,37.4189147 95.3524341,36.7565891 93.5304186,36.7565891 L92.3074729,36.7565891 L92.3074729,40.3590698 L93.8820465,40.3590698 Z M110.077395,45.3506977 L105.459101,45.3506977 L104.567938,48.4564341 L100.840806,48.4564341 L105.873984,33.6502326 L109.683597,33.6502326 L114.717395,48.4564341 L110.988403,48.4564341 L110.077395,45.3506977 Z M107.758016,37.0244961 C107.758016,37.0244961 107.426853,38.6406202 107.156465,39.5727132 L106.308713,42.4514729 L109.228403,42.4514729 L108.399876,39.5727132 C108.130729,38.6406202 107.799566,37.0244961 107.799566,37.0244961 L107.758016,37.0244961 Z M116.16645,33.6499845 L119.832806,33.6499845 L123.933271,40.5665736 C124.513116,41.5395969 125.174822,43.0930853 125.174822,43.0930853 L125.216992,43.0930853 C125.216992,43.0930853 125.051411,41.4986667 125.051411,40.5665736 L125.051411,33.6499845 L128.676217,33.6499845 L128.676217,48.456186 L125.030946,48.456186 L120.909395,41.5606822 C120.32893,40.5876589 119.667225,39.0335504 119.667225,39.0335504 L119.624434,39.0335504 C119.624434,39.0335504 119.791256,40.6285891 119.791256,41.5606822 L119.791256,48.456186 L116.16645,48.456186 L116.16645,33.6499845 Z M139.362419,45.3506977 L134.743504,45.3506977 L133.854202,48.4564341 L130.125829,48.4564341 L135.159008,33.6502326 L138.96862,33.6502326 L144.001798,48.4564341 L140.273426,48.4564341 L139.362419,45.3506977 Z M137.043039,37.0244961 C137.043039,37.0244961 136.711876,38.6406202 136.442729,39.5727132 L135.593736,42.4514729 L138.513426,42.4514729 L137.684899,39.5727132 C137.414512,38.6406202 137.083969,37.0244961 137.083969,37.0244961 L137.043039,37.0244961 Z M145.450295,33.6501085 L150.71169,33.6501085 C155.371535,33.6501085 158.354481,36.3620465 158.354481,41.0225116 C158.354481,45.6823566 155.371535,48.4563101 150.71169,48.4563101 L145.450295,48.4563101 L145.450295,33.6501085 Z M150.565953,45.3505736 C153.07386,45.3505736 154.605023,43.8597209 154.605023,41.0225116 C154.605023,38.2057674 153.010605,36.7564651 150.565953,36.7564651 L149.075101,36.7564651 L149.075101,45.3505736 L150.565953,45.3505736 Z M167.42493,33.4007442 C171.898729,33.4007442 175.170667,36.7142326 175.170667,40.9604341 C175.170667,45.3095814 171.898729,48.7061705 167.42493,48.7061705 C162.952372,48.7061705 159.680434,45.3095814 159.680434,40.9604341 C159.680434,36.7142326 162.952372,33.4007442 167.42493,33.4007442 Z M167.42493,45.392062 C169.641984,45.392062 171.42245,43.4875659 171.42245,40.9604341 C171.42245,38.5374884 169.641984,36.7142326 167.42493,36.7142326 C165.210357,36.7142326 163.428651,38.5374884 163.428651,40.9604341 C163.428651,43.4875659 165.210357,45.392062 167.42493,45.392062 Z M178.236155,43.8383876 C178.236155,43.8383876 179.913674,45.372031 181.77724,45.372031 C182.522667,45.372031 183.330109,45.0817984 183.330109,44.1912558 C183.330109,42.4306357 176.662822,42.4932713 176.662822,37.9369922 C176.662822,35.2027287 178.962357,33.4005581 181.902512,33.4005581 C185.091969,33.4005581 186.665302,35.0786977 186.665302,35.0786977 L185.132899,38.039938 C185.132899,38.039938 183.642047,36.7357519 181.860961,36.7357519 C181.114915,36.7357519 180.287628,37.0669147 180.287628,37.8948217 C180.287628,39.7590078 186.955535,39.427845 186.955535,44.1075349 C186.955535,46.5732713 185.070884,48.7059845 181.73693,48.7059845 C178.25724,48.7059845 176.330419,46.5937364 176.330419,46.5937364 L178.236155,43.8383876 Z M194.57755,43.8383876 C194.57755,43.8383876 196.25507,45.372031 198.118636,45.372031 C198.864062,45.372031 199.671504,45.0817984 199.671504,44.1912558 C199.671504,42.4306357 193.002357,42.4932713 193.002357,37.9369922 C193.002357,35.2027287 195.302512,33.4005581 198.242667,33.4005581 C201.432124,33.4005581 203.005457,35.0786977 203.005457,35.0786977 L201.474295,38.039938 C201.474295,38.039938 199.982202,36.7357519 198.201116,36.7357519 C197.45569,36.7357519 196.627783,37.0669147 196.627783,37.8948217 C196.627783,39.7590078 203.29693,39.427845 203.29693,44.1075349 C203.29693,46.5732713 201.412279,48.7059845 198.078326,48.7059845 C194.598016,48.7059845 192.671194,46.5937364 192.671194,46.5937364 L194.57755,43.8383876 Z M218.580279,45.3506977 L213.961364,45.3506977 L213.072062,48.4564341 L209.34431,48.4564341 L214.375628,33.6502326 L218.187101,33.6502326 L223.220279,48.4564341 L219.491287,48.4564341 L218.580279,45.3506977 Z M216.260279,37.0244961 C216.260279,37.0244961 215.929736,38.6406202 215.659969,39.5727132 L214.811597,42.4514729 L217.730667,42.4514729 L216.90214,39.5727132 C216.634233,38.6406202 216.30245,37.0244961 216.30245,37.0244961 L216.260279,37.0244961 Z M231.068341,43.8383876 C231.068341,43.8383876 232.746481,45.372031 234.610047,45.372031 C235.355473,45.372031 236.162915,45.0817984 236.162915,44.1912558 C236.162915,42.4306357 229.495008,42.4932713 229.495008,37.9369922 C229.495008,35.2027287 231.795163,33.4005581 234.734698,33.4005581 C237.924155,33.4005581 239.498109,35.0786977 239.498109,35.0786977 L237.965085,38.039938 C237.965085,38.039938 236.473612,36.7357519 234.693147,36.7357519 C233.947721,36.7357519 233.119194,37.0669147 233.119194,37.8948217 C233.119194,39.7590078 239.788341,39.427845 239.788341,44.1075349 C239.788341,46.5732713 237.90369,48.7059845 234.569116,48.7059845 C231.090047,48.7059845 229.163225,46.5937364 229.163225,46.5937364 L231.068341,43.8383876 Z" id="Combined-Shape" fill="#000000"></path>
        </g>
    </g>
</svg>